<?xml version="1.0" encoding="utf-8"?>
<!-- Generator: Adobe Illustrator 16.0.0, SVG Export Plug-In . SVG Version: 6.00 Build 0)  -->
<!DOCTYPE svg PUBLIC "-//W3C//DTD SVG 1.1//EN" "http://www.w3.org/Graphics/SVG/1.1/DTD/svg11.dtd">
<svg version="1.1" id="Layer_1" xmlns="http://www.w3.org/2000/svg" xmlns:xlink="http://www.w3.org/1999/xlink" x="0px" y="0px"
	 width="1000px" height="1000px" viewBox="0 0 1000 1000" enable-background="new 0 0 1000 1000" xml:space="preserve">
<g>
	<g>
		<path fill-rule="evenodd" clip-rule="evenodd" fill="none" d="M20.48,140.48c320.161,0,640.321,0,960.481,0c0,240,0,480,0,720
			c-320.16,0.001-640.32,0.001-960.48,0.001C20.48,620.48,20.48,380.48,20.48,140.48z M553.234,592.205
			c0.136,0.063,0.271,0.125,0.407,0.187c-0.115-0.081-0.231-0.162-0.347-0.243c-0.223-0.404-0.387-0.857-0.677-1.205
			c-19.179-22.942-38.373-45.872-57.554-68.813c-17.9-21.408-35.787-42.828-53.68-64.242
			c-15.687-18.773-31.374-37.546-47.071-56.312c-0.27-0.322-0.67-0.537-1.154-0.914c-31.274,106.349-62.482,212.473-93.468,317.84
			c0.286-0.733,0.864-2.193,1.423-3.661c4.041-10.597,7.869-21.278,12.155-31.774c11.106-27.201,24.02-53.505,39.833-78.319
			c10.948-17.18,23.132-33.379,37.902-47.518c8.942-8.56,18.74-15.896,29.688-21.76c10.42-5.582,21.21-7.08,32.708-4.413
			c7.44,1.727,14.512,4.396,21.382,7.649c13.42,6.356,25.872,14.346,37.806,23.101c13.15,9.647,26.033,19.658,39.042,29.499
			C552.114,591.672,552.695,591.909,553.234,592.205z M325.808,705.642c-0.388,0.896-0.727,1.576-0.982,2.287
			c-1.93,5.379-3.875,10.753-5.749,16.151c-0.964,2.777-1.85,5.586-2.658,8.413c-0.585,2.046-0.292,2.595,1.482,3.723
			c0.668,0.425,1.343,0.841,2.015,1.26c5.677,3.54,11.257,7.25,17.06,10.572c5.588,3.198,11.316,6.184,17.144,8.921
			c7.36,3.458,14.782,6.836,22.366,9.757c7.631,2.94,15.366,5.667,23.297,7.761c3.906,1.031,7.789,2.155,11.697,3.179
			c1.52,0.397,3.2,0.374,4.6,1.003c2.416,1.083,5.025,1.031,7.506,1.681c2.652,0.694,5.41,0.981,8.121,1.456
			c1.85,0.324,3.691,0.703,5.548,0.985c2.396,0.363,4.8,0.673,7.206,0.969c1.65,0.203,3.357,0.152,4.954,0.556
			c2.83,0.713,5.75,0.693,8.6,1.063c4.645,0.602,9.413,0.28,14.129,0.297c7.28,0.025,14.559,0.021,21.839,0
			c2.796-0.008,5.595-0.046,8.389-0.162c2.418-0.101,4.799,0.154,7.257-0.66c2.021-0.668,4.367-0.314,6.59-0.648
			c3.248-0.489,6.526-0.702,9.794-1.287c3.773-0.677,7.584-1.115,11.354-1.94c3.961-0.867,7.985-1.401,11.934-2.433
			c4.905-1.28,9.853-2.376,14.728-3.813c4.713-1.389,9.422-2.769,14.051-4.413c4.043-1.437,8.101-2.835,12.1-4.385
			c4.471-1.732,8.949-3.471,13.303-5.472c5.634-2.588,11.256-5.239,16.686-8.223c6.749-3.707,13.314-7.752,19.928-11.702
			c6.807-4.066,13.272-8.652,19.596-13.413c8.37-6.302,16.438-12.994,24.024-20.231c4.888-4.664,9.736-9.383,14.363-14.302
			c4.132-4.394,8.026-9.021,11.856-13.684c4.027-4.903,7.922-9.921,11.745-14.985c2.576-3.412,5.011-6.939,7.36-10.513
			c2.895-4.402,5.727-8.852,8.414-13.382c2-3.371,3.766-6.884,5.569-10.368c2.514-4.858,5.155-9.664,7.397-14.646
			c3.059-6.799,5.906-13.698,8.629-20.64c1.967-5.012,3.662-10.135,5.324-15.258c0.984-3.031,1.648-6.166,2.492-9.244
			c1.232-4.495,2.613-8.954,3.705-13.482c0.755-3.13,1.107-6.355,1.684-9.53c0.195-1.078,0.604-2.118,0.775-3.198
			c0.297-1.867,0.486-3.752,0.721-5.629c0.157-1.252-0.008-2.672,0.539-3.721c1.206-2.314,0.621-4.804,1.082-7.18
			c0.539-2.782,0.498-5.676,0.728-8.521c0.024-0.3,0.18-0.588,0.261-0.886c0.181-0.664,0.47-1.324,0.506-1.997
			c0.111-2.073,0.173-4.151,0.167-6.229c-0.036-14.476-0.094-28.951-0.149-43.427c-0.001-0.396,0.098-0.94-0.115-1.163
			c-1.038-1.087-0.576-2.402-0.688-3.629c-0.228-2.523-0.367-5.06-0.717-7.566c-0.473-3.401-1.118-6.778-1.669-10.169
			c-0.668-4.111-1.094-8.278-2.026-12.328c-1.152-5.003-2.249-10.021-3.649-14.977c-1.456-5.156-2.77-10.353-4.437-15.45
			c-0.903-2.76-1.743-5.546-2.766-8.262c-1.708-4.537-3.47-9.057-5.34-13.529c-2.301-5.503-4.582-11.024-7.157-16.401
			c-2.335-4.876-5.163-9.514-7.569-14.358c-2.378-4.786-5.329-9.213-8.064-13.779c-4.933-8.234-10.552-15.995-16.354-23.61
			c-4.037-5.298-8.433-10.33-12.78-15.385c-6.59-7.664-13.909-14.626-21.146-21.664c-1.102-1.071-2.367-1.972-3.713-3.08
			c-0.414,0.858-0.764,1.398-0.945,1.99c-0.747,2.425-1.439,4.866-2.158,7.299c-1.975,6.689-3.94,13.381-5.939,20.063
			c-0.397,1.327-0.315,2.325,0.782,3.425c3.426,3.429,6.787,6.932,10.009,10.553c5.546,6.232,10.733,12.755,15.726,19.45
			c5.431,7.282,10.374,14.867,14.996,22.666c2.806,4.734,5.543,9.527,7.976,14.459c3.049,6.181,6.149,12.353,8.586,18.819
			c0.384,1.021,0.806,2.028,1.204,3.045c0.947,2.42,1.962,4.816,2.819,7.268c1.136,3.25,2.018,6.593,3.243,9.807
			c1.854,4.865,3.106,9.896,4.483,14.897c0.29,1.056,0.559,2.118,0.813,3.183c0.737,3.092,1.514,6.177,2.176,9.285
			c0.586,2.75,1.063,5.525,1.541,8.296c0.201,1.167,0.217,2.365,0.431,3.529c0.368,2.003,0.926,3.975,1.224,5.987
			c0.487,3.276,0.565,6.593,1.048,9.887c0.538,3.677,0.4,7.452,0.579,11.183c0.102,2.124-0.419,4.312,0.729,6.338
			c0.209,0.369,0.07,0.942,0.071,1.421c0.003,4.959,0.008,9.919-0.006,14.879c-0.002,0.633-0.069,1.272-0.174,1.896
			c-0.18,1.078-0.549,2.142-0.601,3.222c-0.218,4.53-0.347,9.065-0.508,13.599c-0.006,0.16-0.003,0.321-0.024,0.479
			c-0.358,2.573-0.85,5.136-1.033,7.721c-0.107,1.523-0.542,2.939-0.78,4.401c-0.603,3.704-0.994,7.419-1.875,11.103
			c-0.737,3.086-1.007,6.283-1.987,9.357c-0.686,2.151-0.82,4.474-1.402,6.666c-1.072,4.04-2.267,8.048-3.459,12.056
			c-0.981,3.298-1.91,6.62-3.086,9.851c-1.396,3.831-3.05,7.567-4.556,11.359c-1.24,3.124-2.26,6.349-3.679,9.388
			c-2.295,4.916-4.783,9.744-7.294,14.556c-1.887,3.616-3.883,7.178-5.931,10.706c-2.166,3.73-4.362,7.449-6.71,11.067
			c-2.494,3.844-5.065,7.648-7.813,11.313c-3.476,4.638-7.081,9.186-10.782,13.647c-3.75,4.521-7.545,9.022-11.576,13.29
			c-3.865,4.094-7.991,7.952-12.13,11.775c-4.016,3.71-8.097,7.36-12.326,10.821c-4.051,3.315-8.344,6.332-12.501,9.519
			c-6.282,4.815-12.932,9.075-19.75,13.071c-4.687,2.746-9.385,5.493-14.231,7.936c-6.019,3.035-12.147,5.865-18.32,8.575
			c-4.063,1.784-8.252,3.303-12.447,4.757c-5.734,1.986-11.514,3.847-17.303,5.669c-3.336,1.05-6.713,1.985-10.103,2.846
			c-3.016,0.766-6.068,1.386-9.117,2.013c-2.742,0.564-5.495,1.083-8.255,1.557c-1.167,0.199-2.378,0.145-3.541,0.359
			c-1.99,0.368-3.942,0.968-5.94,1.269c-3.267,0.492-6.577,0.516-9.862,1.057c-3.27,0.539-6.648,0.436-9.982,0.559
			c-1.758,0.064-3.52-0.014-5.279,0.025c-0.626,0.014-1.253,0.163-1.873,0.286c-0.759,0.149-1.509,0.475-2.266,0.481
			c-4.799,0.045-9.599,0.029-14.399,0.015c-0.631-0.003-1.268-0.081-1.891-0.189c-0.991-0.174-1.966-0.539-2.958-0.584
			c-4.77-0.212-9.57-0.102-14.303-0.616c-2.115-0.229-4.228-0.403-6.349-0.557c-1.497-0.107-2.998-0.271-4.473-0.543
			c-2.066-0.382-4.097-0.95-6.164-1.325c-3.146-0.571-6.324-0.975-9.462-1.583c-2.206-0.428-4.358-1.122-6.553-1.618
			c-2.369-0.535-4.786-0.87-7.132-1.484c-3.755-0.983-7.502-2.021-11.191-3.225c-6-1.959-11.965-4.032-17.917-6.135
			c-2.87-1.015-5.75-2.053-8.499-3.35c-7.299-3.443-14.644-6.768-21.757-10.631c-8.058-4.377-15.886-9.074-23.478-14.19
			C330.707,709.101,328.405,707.451,325.808,705.642z M644.878,244.472c-1.736-1.101-3.308-2.157-4.936-3.119
			c-6.026-3.562-12.034-7.158-18.124-10.608c-3.341-1.893-6.802-3.583-10.264-5.25c-3.802-1.832-7.652-3.567-11.511-5.278
			c-3.082-1.366-6.179-2.71-9.323-3.925c-4.944-1.91-9.858-3.91-14.973-5.36c-2.794-0.792-5.554-1.708-8.322-2.588
			c-2.575-0.819-5.112-1.772-7.717-2.478c-3.844-1.041-7.728-1.935-11.604-2.851c-2.28-0.539-4.574-1.021-6.87-1.49
			c-1.772-0.363-3.553-0.697-5.339-0.986c-1.449-0.234-2.884-0.532-4.313-0.831c-3.379-0.707-6.874-0.86-10.322-1.232
			c-1.731-0.187-3.609,0.002-5.163-0.622c-2.905-1.167-5.948-0.493-8.905-1.167c-2.978-0.678-6.187-0.449-9.293-0.433
			c-12.547,0.063-25.095,0.161-37.641,0.332c-3.159,0.043-6.314,0.406-9.47,0.625c-0.158,0.011-0.335,0.013-0.467,0.086
			c-2.346,1.305-5.008,0.464-7.482,1.122c-2.262,0.602-4.659,0.702-7,1.002c-1.694,0.217-3.357,0.469-5.034,0.904
			c-3.093,0.802-6.3,1.089-9.435,1.855c-3.028,0.741-6.126,1.246-9.161,2.04c-2.576,0.673-5.239,1.023-7.805,1.729
			c-2.679,0.737-5.283,1.746-7.931,2.603c-2.977,0.963-5.996,1.808-8.944,2.85c-4.93,1.743-9.842,3.544-14.721,5.427
			c-6.782,2.617-13.445,5.511-19.899,8.871c-4.174,2.173-8.363,4.318-12.539,6.489c-7.774,4.043-15.191,8.683-22.425,13.61
			c-4.109,2.799-8.186,5.66-12.118,8.697c-6.026,4.655-12.041,9.343-17.824,14.292c-4.52,3.868-8.679,8.157-13.003,12.254
			c-7.225,6.844-13.934,14.167-20.174,21.911c-3.962,4.917-7.931,9.843-11.623,14.963c-3.972,5.508-7.731,11.178-11.379,16.908
			c-2.949,4.631-5.679,9.408-8.348,14.208c-2.625,4.721-5.198,9.483-7.525,14.355c-2.567,5.374-4.903,10.863-7.201,16.359
			c-1.873,4.479-3.705,8.989-5.262,13.584c-2.224,6.561-4.288,13.181-6.211,19.837c-1.233,4.269-2.132,8.637-3.103,12.979
			c-0.822,3.679-1.532,7.382-2.289,11.075c-0.314,1.534-0.711,3.057-0.913,4.605c-0.438,3.353-0.778,6.719-1.149,10.08
			c-0.192,1.736,0.024,3.64-0.629,5.176c-1.202,2.825-0.265,5.797-1.158,8.665c-0.688,2.207-0.439,4.739-0.427,7.125
			c0.075,14.387,0.201,28.773,0.31,43.16c0.001,0.24-0.067,0.519,0.03,0.714c1.352,2.725,0.396,5.745,1.229,8.644
			c0.846,2.945,0.66,6.227,1.218,9.35c0.454,2.54,0.69,5.106,1.244,7.656c0.731,3.37,1.092,6.817,1.983,10.177
			c0.88,3.318,1.482,6.71,2.26,10.057c0.686,2.95,1.435,5.887,2.179,8.824c0.383,1.515,0.744,3.041,1.241,4.521
			c0.944,2.809,2.016,5.574,2.965,8.381c1.1,3.251,1.987,6.581,3.215,9.782c1.882,4.906,3.97,9.734,5.982,14.59
			c0.753,1.817,1.462,3.66,2.33,5.423c2.346,4.767,4.71,9.524,7.172,14.231c2.149,4.106,4.272,8.243,6.708,12.18
			c3.896,6.297,7.977,12.481,12.104,18.63c2.769,4.126,5.685,8.158,8.667,12.134c2.091,2.788,4.361,5.448,6.63,8.098
			c3.465,4.044,6.886,8.136,10.532,12.013c4.351,4.627,8.913,9.058,13.401,13.554c0.874,0.875,1.832,1.665,3.049,2.763
			c0.861-2.685,1.638-4.987,2.337-7.314c1.209-4.024,2.356-8.067,3.554-12.096c1.062-3.572,2.202-7.122,3.21-10.71
			c0.272-0.966,0.292-1.967-0.561-2.893c-3.224-3.504-6.318-7.127-9.539-10.633c-5.098-5.549-9.599-11.569-14.019-17.646
			c-3.111-4.278-6.07-8.676-8.917-13.136c-2.743-4.298-5.362-8.684-7.837-13.141c-2.518-4.532-4.903-9.146-7.148-13.819
			c-2.368-4.932-4.64-9.919-6.697-14.987c-1.978-4.871-3.698-9.851-5.398-14.829c-1.762-5.16-3.44-10.354-5.005-15.577
			c-0.892-2.976-1.498-6.038-2.205-9.068c-0.725-3.11-1.436-6.225-2.108-9.347c-0.149-0.693-0.044-1.438-0.165-2.141
			c-0.582-3.39-1.227-6.769-1.797-10.161c-0.313-1.864-0.55-3.742-0.773-5.62c-0.158-1.334-0.174-2.687-0.366-4.015
			c-0.189-1.31-0.604-2.589-0.768-3.9c-0.236-1.883-0.422-3.781-0.474-5.678c-0.123-4.456-0.287-8.903-0.546-13.357
			c-0.388-6.67-0.265-13.38,0.465-20.07c0.456-4.18,0.371-8.418,0.545-12.63c0.017-0.389,0.146-0.772,0.227-1.158
			c0.189-0.916,0.464-1.823,0.553-2.748c0.22-2.286,0.312-4.585,0.539-6.871c0.148-1.488,0.233-3.035,0.719-4.425
			c1.102-3.154,0.986-6.5,1.778-9.696c0.6-2.42,1.012-4.886,1.571-7.316c0.504-2.193,1.092-4.367,1.651-6.547
			c0.887-3.459,1.686-6.944,2.698-10.366c1.064-3.597,2.333-7.134,3.519-10.695c0.664-1.996,1.298-4.004,2.022-5.979
			c1.111-3.031,2.24-6.059,3.455-9.049c0.819-2.018,1.803-3.968,2.708-5.952c1.794-3.933,3.458-7.932,5.411-11.784
			c2.234-4.408,4.672-8.716,7.12-13.012c2.484-4.36,4.911-8.77,7.68-12.948c4.891-7.377,9.917-14.673,15.662-21.433
			c4.528-5.328,8.893-10.812,13.683-15.895c5.021-5.328,10.371-10.357,15.742-15.339c6.169-5.723,12.714-11.002,19.476-16.027
			c6.541-4.861,13.232-9.493,20.199-13.698c5.183-3.128,10.546-5.965,15.89-8.817c3.322-1.773,6.723-3.41,10.152-4.968
			c5.262-2.392,10.542-4.751,15.886-6.954c3.82-1.575,7.715-3,11.65-4.261c4.97-1.593,10.008-2.979,15.032-4.4
			c2.772-0.784,5.565-1.5,8.368-2.166c2.657-0.631,5.334-1.176,8.01-1.722c2.612-0.533,5.23-1.035,7.852-1.519
			c1.674-0.309,3.353-0.604,5.039-0.828c2.188-0.289,4.449-0.259,6.564-0.809c2.443-0.635,4.954-0.015,7.429-1.002
			c1.895-0.755,4.215-0.512,6.351-0.582c4.131-0.134,8.263-0.321,12.386-0.505c6.098-0.272,12.241-0.531,18.388,0.383
			c4.458,0.663,9.048,0.476,13.583,0.563c2.909,0.056,5.678,1.058,8.625,0.994c1.924-0.042,3.863,0.868,5.794,0.859
			c1.71-0.008,3.177,0.725,4.792,0.891c1.65,0.17,3.331,0.203,4.946,0.543c3.506,0.738,6.955,1.757,10.472,2.433
			c4.203,0.807,8.332,1.792,12.395,3.179c3.841,1.312,7.859,2.104,11.714,3.383c6.367,2.113,12.721,4.275,18.824,7.115
			c4.188,1.949,8.563,3.513,12.697,5.563c5.695,2.824,11.239,5.953,16.856,8.937c6.763,3.592,13.146,7.787,19.435,12.138
			c0.452,0.313,1.073,0.38,1.822,0.631C638.468,263.472,641.634,254.089,644.878,244.472z M566.446,581.01
			c30.536-103.726,60.913-206.908,91.282-310.092c0.246-0.837,0.393-1.705,0.578-2.56c0.017-0.073-0.002-0.167-0.039-0.232
			c-0.014-0.023-0.126,0.008-0.263,0.022c-0.188,0.479-0.401,0.981-0.583,1.496c-5.268,15.006-11.165,29.759-17.618,44.295
			c-10.395,23.412-22.151,46.093-36.283,67.488c-10.827,16.392-22.835,31.823-37.382,45.15c-8.413,7.709-17.59,14.288-27.7,19.631
			c-9.826,5.193-20.051,6.68-30.895,4.37c-6.438-1.371-12.622-3.485-18.642-6.107c-9.33-4.064-18.108-9.136-26.668-14.609
			c-15.988-10.224-30.924-21.891-45.933-33.458c-3.561-2.745-7.12-5.493-10.681-8.239c-0.064,0.074-0.127,0.148-0.191,0.223
			C458.989,452.461,512.549,516.533,566.446,581.01z M537.03,405.674c0.036-10.293-8.034-18.489-18.26-18.543
			c-10.338-0.055-18.693,8.191-18.685,18.439c0.009,10.106,8.347,18.464,18.462,18.504
			C528.699,424.116,536.995,415.856,537.03,405.674z M463.11,578.436c0.022-10.288-8.063-18.463-18.299-18.504
			c-10.329-0.042-18.678,8.232-18.646,18.479c0.032,10.11,8.386,18.447,18.501,18.465
			C454.819,596.893,463.088,588.625,463.11,578.436z"/>
		<path fill-rule="evenodd" clip-rule="evenodd" fill="#585757" d="M325.808,705.642c2.597,1.81,4.899,3.459,7.247,5.041
			c7.592,5.116,15.42,9.813,23.478,14.19c7.113,3.863,14.458,7.188,21.757,10.631c2.749,1.297,5.628,2.335,8.499,3.35
			c5.952,2.103,11.917,4.176,17.917,6.135c3.689,1.204,7.436,2.241,11.191,3.225c2.346,0.614,4.763,0.949,7.132,1.484
			c2.194,0.496,4.347,1.19,6.553,1.618c3.138,0.608,6.316,1.012,9.462,1.583c2.067,0.375,4.098,0.943,6.164,1.325
			c1.475,0.271,2.976,0.436,4.473,0.543c2.121,0.153,4.234,0.327,6.349,0.557c4.733,0.515,9.533,0.404,14.303,0.616
			c0.992,0.045,1.967,0.41,2.958,0.584c0.623,0.108,1.26,0.187,1.891,0.189c4.8,0.015,9.6,0.03,14.399-0.015
			c0.756-0.007,1.507-0.332,2.266-0.481c0.62-0.123,1.246-0.272,1.873-0.286c1.759-0.039,3.521,0.039,5.279-0.025
			c3.333-0.123,6.712-0.02,9.982-0.559c3.285-0.541,6.596-0.564,9.862-1.057c1.998-0.301,3.95-0.9,5.94-1.269
			c1.163-0.215,2.374-0.16,3.541-0.359c2.76-0.474,5.513-0.992,8.255-1.557c3.049-0.627,6.102-1.247,9.117-2.013
			c3.39-0.86,6.767-1.796,10.103-2.846c5.789-1.822,11.568-3.683,17.303-5.669c4.195-1.454,8.384-2.973,12.447-4.757
			c6.173-2.71,12.302-5.54,18.32-8.575c4.847-2.442,9.545-5.189,14.231-7.936c6.818-3.996,13.468-8.256,19.75-13.071
			c4.157-3.187,8.45-6.203,12.501-9.519c4.229-3.461,8.311-7.111,12.326-10.821c4.139-3.823,8.265-7.682,12.13-11.775
			c4.031-4.268,7.826-8.769,11.576-13.29c3.701-4.462,7.307-9.01,10.782-13.647c2.747-3.665,5.318-7.47,7.813-11.313
			c2.348-3.618,4.544-7.337,6.71-11.067c2.048-3.528,4.044-7.09,5.931-10.706c2.511-4.812,4.999-9.64,7.294-14.556
			c1.419-3.039,2.438-6.264,3.679-9.388c1.506-3.792,3.16-7.528,4.556-11.359c1.176-3.23,2.104-6.553,3.086-9.851
			c1.192-4.008,2.387-8.016,3.459-12.056c0.582-2.192,0.717-4.515,1.402-6.666c0.98-3.074,1.25-6.271,1.987-9.357
			c0.881-3.684,1.272-7.398,1.875-11.103c0.238-1.462,0.673-2.878,0.78-4.401c0.184-2.585,0.675-5.147,1.033-7.721
			c0.021-0.157,0.019-0.318,0.024-0.479c0.161-4.533,0.29-9.068,0.508-13.599c0.052-1.08,0.421-2.144,0.601-3.222
			c0.104-0.625,0.172-1.264,0.174-1.896c0.014-4.96,0.009-9.919,0.006-14.879c-0.001-0.479,0.138-1.052-0.071-1.421
			c-1.147-2.026-0.627-4.214-0.729-6.338c-0.179-3.731-0.041-7.506-0.579-11.183c-0.482-3.294-0.561-6.61-1.048-9.887
			c-0.298-2.012-0.855-3.984-1.224-5.987c-0.214-1.164-0.229-2.362-0.431-3.529c-0.478-2.771-0.955-5.546-1.541-8.296
			c-0.662-3.108-1.438-6.192-2.176-9.285c-0.254-1.064-0.522-2.127-0.813-3.183c-1.377-5-2.629-10.032-4.483-14.897
			c-1.226-3.214-2.107-6.557-3.243-9.807c-0.857-2.452-1.872-4.848-2.819-7.268c-0.398-1.017-0.82-2.023-1.204-3.045
			c-2.437-6.467-5.537-12.638-8.586-18.819c-2.433-4.932-5.17-9.725-7.976-14.459c-4.622-7.799-9.565-15.384-14.996-22.666
			c-4.992-6.695-10.18-13.217-15.726-19.45c-3.222-3.621-6.583-7.124-10.009-10.553c-1.098-1.1-1.18-2.098-0.782-3.425
			c1.999-6.682,3.965-13.374,5.939-20.063c0.719-2.433,1.411-4.874,2.158-7.299c0.182-0.592,0.531-1.132,0.945-1.99
			c1.346,1.108,2.611,2.009,3.713,3.08c7.237,7.038,14.557,14,21.146,21.664c4.348,5.055,8.743,10.087,12.78,15.385
			c5.803,7.616,11.422,15.376,16.354,23.61c2.735,4.566,5.687,8.993,8.064,13.779c2.406,4.844,5.234,9.482,7.569,14.358
			c2.575,5.377,4.856,10.898,7.157,16.401c1.87,4.473,3.632,8.993,5.34,13.529c1.022,2.716,1.862,5.502,2.766,8.262
			c1.667,5.097,2.98,10.293,4.437,15.45c1.4,4.956,2.497,9.974,3.649,14.977c0.933,4.05,1.358,8.217,2.026,12.328
			c0.551,3.391,1.196,6.768,1.669,10.169c0.35,2.507,0.489,5.043,0.717,7.566c0.111,1.227-0.351,2.542,0.688,3.629
			c0.213,0.223,0.114,0.767,0.115,1.163c0.056,14.476,0.113,28.951,0.149,43.427c0.006,2.077-0.056,4.155-0.167,6.229
			c-0.036,0.673-0.325,1.333-0.506,1.997c-0.081,0.298-0.236,0.586-0.261,0.886c-0.229,2.845-0.188,5.738-0.728,8.521
			c-0.461,2.376,0.124,4.865-1.082,7.18c-0.547,1.049-0.382,2.469-0.539,3.721c-0.234,1.877-0.424,3.762-0.721,5.629
			c-0.172,1.08-0.58,2.12-0.775,3.198c-0.576,3.175-0.929,6.4-1.684,9.53c-1.092,4.528-2.473,8.987-3.705,13.482
			c-0.844,3.078-1.508,6.213-2.492,9.244c-1.662,5.123-3.357,10.246-5.324,15.258c-2.723,6.941-5.57,13.841-8.629,20.64
			c-2.242,4.982-4.884,9.788-7.397,14.646c-1.804,3.484-3.569,6.997-5.569,10.368c-2.688,4.53-5.52,8.979-8.414,13.382
			c-2.35,3.573-4.784,7.101-7.36,10.513c-3.823,5.064-7.718,10.082-11.745,14.985c-3.83,4.663-7.725,9.29-11.856,13.684
			c-4.627,4.919-9.476,9.638-14.363,14.302c-7.586,7.237-15.654,13.93-24.024,20.231c-6.323,4.761-12.789,9.347-19.596,13.413
			c-6.613,3.95-13.179,7.995-19.928,11.702c-5.43,2.983-11.052,5.635-16.686,8.223c-4.354,2.001-8.832,3.739-13.303,5.472
			c-3.999,1.55-8.057,2.948-12.1,4.385c-4.629,1.645-9.338,3.024-14.051,4.413c-4.875,1.438-9.822,2.533-14.728,3.813
			c-3.948,1.031-7.973,1.565-11.934,2.433c-3.77,0.825-7.58,1.264-11.354,1.94c-3.268,0.585-6.546,0.798-9.794,1.287
			c-2.223,0.334-4.569-0.02-6.59,0.648c-2.458,0.814-4.839,0.56-7.257,0.66c-2.794,0.116-5.592,0.154-8.389,0.162
			c-7.28,0.021-14.559,0.025-21.839,0c-4.716-0.017-9.484,0.305-14.129-0.297c-2.851-0.369-5.771-0.35-8.6-1.063
			c-1.596-0.403-3.303-0.353-4.954-0.556c-2.406-0.296-4.81-0.605-7.206-0.969c-1.856-0.282-3.698-0.661-5.548-0.985
			c-2.71-0.475-5.469-0.762-8.121-1.456c-2.481-0.649-5.09-0.598-7.506-1.681c-1.4-0.629-3.08-0.605-4.6-1.003
			c-3.908-1.023-7.791-2.147-11.697-3.179c-7.931-2.094-15.666-4.82-23.297-7.761c-7.584-2.921-15.005-6.299-22.366-9.757
			c-5.827-2.737-11.556-5.723-17.144-8.921c-5.802-3.322-11.382-7.032-17.06-10.572c-0.672-0.419-1.347-0.835-2.015-1.26
			c-1.775-1.128-2.068-1.677-1.482-3.723c0.808-2.827,1.694-5.636,2.658-8.413c1.874-5.398,3.819-10.772,5.749-16.151
			C325.081,707.218,325.42,706.538,325.808,705.642z"/>
		<path fill-rule="evenodd" clip-rule="evenodd" fill="#585757" d="M644.878,244.472c-3.244,9.618-6.41,19-9.668,28.656
			c-0.749-0.25-1.37-0.318-1.822-0.631c-6.288-4.352-12.672-8.546-19.435-12.138c-5.617-2.984-11.161-6.113-16.856-8.937
			c-4.135-2.05-8.509-3.614-12.697-5.563c-6.104-2.84-12.457-5.002-18.824-7.115c-3.854-1.279-7.873-2.072-11.714-3.383
			c-4.063-1.387-8.191-2.372-12.395-3.179c-3.517-0.676-6.966-1.695-10.472-2.433c-1.615-0.34-3.296-0.373-4.946-0.543
			c-1.615-0.167-3.082-0.899-4.792-0.891c-1.931,0.009-3.87-0.901-5.794-0.859c-2.947,0.064-5.716-0.938-8.625-0.994
			c-4.534-0.087-9.125,0.1-13.583-0.563c-6.147-0.915-12.291-0.655-18.388-0.383c-4.123,0.184-8.255,0.371-12.386,0.505
			c-2.136,0.069-4.456-0.174-6.351,0.582c-2.475,0.987-4.985,0.367-7.429,1.002c-2.115,0.55-4.376,0.52-6.564,0.809
			c-1.687,0.223-3.365,0.519-5.039,0.828c-2.621,0.484-5.24,0.986-7.852,1.519c-2.676,0.546-5.354,1.091-8.01,1.722
			c-2.803,0.666-5.596,1.382-8.368,2.166c-5.024,1.421-10.062,2.808-15.032,4.4c-3.936,1.262-7.83,2.686-11.65,4.261
			c-5.343,2.203-10.624,4.563-15.886,6.954c-3.429,1.558-6.83,3.195-10.152,4.968c-5.344,2.852-10.707,5.688-15.89,8.817
			c-6.967,4.206-13.659,8.837-20.199,13.698c-6.762,5.025-13.306,10.305-19.476,16.027c-5.371,4.982-10.721,10.012-15.742,15.339
			c-4.79,5.083-9.155,10.567-13.683,15.895c-5.745,6.759-10.771,14.056-15.662,21.433c-2.77,4.178-5.196,8.587-7.68,12.948
			c-2.448,4.295-4.886,8.604-7.12,13.012c-1.953,3.852-3.616,7.852-5.411,11.784c-0.905,1.983-1.888,3.934-2.708,5.952
			c-1.215,2.991-2.343,6.018-3.455,9.049c-0.724,1.975-1.358,3.982-2.022,5.979c-1.186,3.561-2.454,7.098-3.519,10.695
			c-1.012,3.422-1.811,6.907-2.698,10.366c-0.559,2.18-1.146,4.354-1.651,6.547c-0.56,2.431-0.971,4.896-1.571,7.316
			c-0.792,3.196-0.676,6.542-1.778,9.696c-0.486,1.39-0.57,2.937-0.719,4.425c-0.228,2.286-0.319,4.584-0.539,6.871
			c-0.089,0.925-0.364,1.832-0.553,2.748c-0.08,0.386-0.21,0.77-0.227,1.158c-0.174,4.212-0.089,8.45-0.545,12.63
			c-0.729,6.689-0.853,13.4-0.465,20.07c0.259,4.454,0.424,8.901,0.546,13.357c0.052,1.896,0.238,3.795,0.474,5.678
			c0.164,1.312,0.579,2.591,0.768,3.9c0.192,1.328,0.208,2.681,0.366,4.015c0.223,1.878,0.46,3.756,0.773,5.62
			c0.571,3.393,1.215,6.771,1.797,10.161c0.121,0.703,0.016,1.447,0.165,2.141c0.672,3.122,1.383,6.236,2.108,9.347
			c0.707,3.03,1.313,6.093,2.205,9.068c1.565,5.224,3.243,10.417,5.005,15.577c1.7,4.979,3.42,9.958,5.398,14.829
			c2.057,5.068,4.329,10.056,6.697,14.987c2.245,4.674,4.63,9.287,7.148,13.819c2.476,4.457,5.094,8.843,7.837,13.141
			c2.847,4.46,5.806,8.857,8.917,13.136c4.42,6.077,8.921,12.098,14.019,17.646c3.221,3.506,6.315,7.129,9.539,10.633
			c0.853,0.926,0.833,1.927,0.561,2.893c-1.008,3.588-2.148,7.138-3.21,10.71c-1.198,4.028-2.345,8.071-3.554,12.096
			c-0.699,2.327-1.476,4.63-2.337,7.314c-1.217-1.098-2.175-1.888-3.049-2.763c-4.489-4.496-9.05-8.927-13.401-13.554
			c-3.646-3.877-7.067-7.969-10.532-12.013c-2.269-2.649-4.539-5.31-6.63-8.098c-2.982-3.976-5.897-8.008-8.667-12.134
			c-4.127-6.148-8.208-12.333-12.104-18.63c-2.436-3.937-4.56-8.073-6.708-12.18c-2.462-4.707-4.827-9.465-7.172-14.231
			c-0.868-1.763-1.577-3.605-2.33-5.423c-2.013-4.855-4.101-9.684-5.982-14.59c-1.228-3.201-2.115-6.531-3.215-9.782
			c-0.949-2.807-2.021-5.572-2.965-8.381c-0.497-1.479-0.857-3.006-1.241-4.521c-0.744-2.938-1.493-5.874-2.179-8.824
			c-0.778-3.347-1.38-6.738-2.26-10.057c-0.891-3.359-1.252-6.807-1.983-10.177c-0.554-2.55-0.79-5.116-1.244-7.656
			c-0.559-3.123-0.373-6.404-1.218-9.35c-0.833-2.898,0.123-5.919-1.229-8.644c-0.097-0.195-0.028-0.474-0.03-0.714
			c-0.109-14.387-0.235-28.773-0.31-43.16c-0.012-2.387-0.261-4.918,0.427-7.125c0.893-2.867-0.044-5.839,1.158-8.665
			c0.653-1.536,0.438-3.44,0.629-5.176c0.371-3.361,0.711-6.727,1.149-10.08c0.202-1.548,0.598-3.072,0.913-4.605
			c0.757-3.693,1.467-7.396,2.289-11.075c0.97-4.342,1.869-8.71,3.103-12.979c1.923-6.656,3.987-13.276,6.211-19.837
			c1.557-4.595,3.389-9.105,5.262-13.584c2.298-5.496,4.634-10.985,7.201-16.359c2.328-4.872,4.9-9.634,7.525-14.355
			c2.669-4.8,5.399-9.577,8.348-14.208c3.647-5.73,7.407-11.4,11.379-16.908c3.691-5.12,7.66-10.046,11.623-14.963
			c6.241-7.744,12.95-15.067,20.174-21.911c4.324-4.097,8.483-8.386,13.003-12.254c5.783-4.949,11.797-9.637,17.824-14.292
			c3.933-3.038,8.009-5.898,12.118-8.697c7.234-4.927,14.651-9.567,22.425-13.61c4.176-2.171,8.365-4.316,12.539-6.489
			c6.454-3.36,13.118-6.254,19.899-8.871c4.879-1.883,9.791-3.684,14.721-5.427c2.949-1.042,5.967-1.886,8.944-2.85
			c2.648-0.856,5.251-1.866,7.931-2.603c2.566-0.706,5.229-1.056,7.805-1.729c3.035-0.794,6.133-1.299,9.161-2.04
			c3.135-0.767,6.341-1.054,9.435-1.855c1.677-0.435,3.34-0.688,5.034-0.904c2.34-0.3,4.737-0.4,7-1.002
			c2.474-0.658,5.136,0.184,7.482-1.122c0.131-0.073,0.309-0.076,0.467-0.086c3.156-0.219,6.311-0.582,9.47-0.625
			c12.546-0.171,25.093-0.269,37.641-0.332c3.106-0.016,6.315-0.245,9.293,0.433c2.957,0.674,6-0.001,8.905,1.167
			c1.554,0.624,3.432,0.435,5.163,0.622c3.448,0.372,6.943,0.525,10.322,1.232c1.429,0.298,2.863,0.596,4.313,0.831
			c1.786,0.289,3.566,0.623,5.339,0.986c2.296,0.469,4.59,0.951,6.87,1.49c3.876,0.917,7.76,1.811,11.604,2.851
			c2.604,0.706,5.142,1.658,7.717,2.478c2.769,0.881,5.528,1.796,8.322,2.588c5.114,1.45,10.028,3.45,14.973,5.36
			c3.145,1.214,6.241,2.559,9.323,3.925c3.858,1.711,7.709,3.447,11.511,5.278c3.462,1.667,6.923,3.358,10.264,5.25
			c6.09,3.451,12.098,7.047,18.124,10.608C641.57,242.314,643.142,243.371,644.878,244.472z"/>
		<path fill-rule="evenodd" clip-rule="evenodd" fill="#128BBF" d="M553.232,592.207c-0.537-0.298-1.118-0.535-1.603-0.901
			c-13.009-9.841-25.892-19.852-39.042-29.499c-11.935-8.755-24.386-16.744-37.806-23.101c-6.871-3.254-13.942-5.923-21.382-7.649
			c-11.498-2.667-22.288-1.169-32.708,4.413c-10.948,5.864-20.746,13.2-29.688,21.76c-14.77,14.139-26.955,30.338-37.902,47.518
			c-15.813,24.814-28.727,51.118-39.833,78.319c-4.286,10.496-8.114,21.178-12.155,31.774c-0.559,1.468-1.137,2.928-1.423,3.661
			c30.986-105.367,62.194-211.491,93.468-317.84c0.484,0.377,0.884,0.592,1.154,0.914c15.697,18.765,31.384,37.538,47.071,56.312
			c17.894,21.414,35.78,42.834,53.68,64.242c19.181,22.941,38.375,45.871,57.554,68.813c0.29,0.348,0.454,0.801,0.677,1.205
			L553.232,592.207z"/>
		<path fill-rule="evenodd" clip-rule="evenodd" fill="#128BBF" d="M566.446,581.01c-53.897-64.477-107.457-128.549-161.017-192.622
			c0.064-0.075,0.127-0.149,0.191-0.223c3.561,2.747,7.12,5.494,10.681,8.239c15.009,11.567,29.944,23.234,45.933,33.458
			c8.56,5.474,17.338,10.545,26.668,14.609c6.02,2.622,12.204,4.736,18.642,6.107c10.844,2.31,21.068,0.823,30.895-4.37
			c10.11-5.343,19.287-11.922,27.7-19.631c14.547-13.327,26.555-28.759,37.382-45.15c14.132-21.395,25.889-44.076,36.283-67.488
			c6.453-14.536,12.351-29.289,17.618-44.295c0.182-0.515,0.396-1.018,0.583-1.496c0.137-0.014,0.249-0.045,0.263-0.022
			c0.037,0.065,0.056,0.159,0.039,0.232c-0.186,0.855-0.332,1.722-0.578,2.56C627.359,374.102,596.982,477.284,566.446,581.01z"/>
		<path fill-rule="evenodd" clip-rule="evenodd" fill="#128BBF" d="M537.03,405.674c-0.035,10.182-8.331,18.441-18.482,18.4
			c-10.115-0.041-18.453-8.398-18.462-18.504c-0.009-10.248,8.347-18.494,18.685-18.439
			C528.996,387.186,537.066,395.381,537.03,405.674z"/>
		<path fill-rule="evenodd" clip-rule="evenodd" fill="#128BBF" d="M463.11,578.436c-0.022,10.189-8.292,18.457-18.443,18.439
			c-10.116-0.018-18.469-8.354-18.501-18.465c-0.033-10.246,8.316-18.521,18.646-18.479
			C455.048,559.973,463.132,568.147,463.11,578.436z"/>
		<path fill-rule="evenodd" clip-rule="evenodd" fill="#128BBF" d="M553.295,592.148c0.115,0.081,0.231,0.162,0.347,0.243
			c-0.136-0.062-0.271-0.124-0.409-0.186C553.232,592.207,553.295,592.148,553.295,592.148z"/>
	</g>
</g>
</svg>
